<svg width="24" height="24" viewBox="0 0 24 24" fill="none" xmlns="http://www.w3.org/2000/svg">
<g clip-path="url(#clip0)">
<path d="M20.6449 4.83858C20.2776 4.44674 20.0816 4.00593 20.0816 3.46715C20.0816 2.92838 20.2776 2.46307 20.6449 2.09572C21.0367 1.70389 21.502 1.50797 22.0408 1.50797C22.5551 1.50797 23.0204 1.70389 23.4122 2.07123C23.8041 2.43858 24 2.90389 24 3.44266C24 3.98144 23.8041 4.44674 23.4122 4.81409C23.0204 5.18144 22.5796 5.37735 22.0408 5.37735C21.502 5.40184 21.0367 5.20593 20.6449 4.83858Z" fill="#fff"/>
<path d="M19.7388 14.0712C19.249 13.508 16.8245 10.9365 13.249 9.71205L13.8367 9.02633C14.9388 9.39368 16.5306 10.2018 17.5102 10.912L19.9592 8.07123C19.9592 8.07123 21.0857 6.65082 20.3265 5.45082C19.8367 4.64266 18.9796 4.5447 18.6367 4.5447H18.6122H9.86939C9.25714 4.5447 8.76735 5.0345 8.76735 5.64674C8.76735 6.25899 9.25714 6.74878 9.86939 6.74878H15.7959L13.8367 9.02633C12.7347 8.6345 11.5102 8.3896 10.2122 8.41409C9.47755 8.43858 8.81633 8.56103 8.25306 8.75695C7.49388 7.85082 7.07755 6.9447 7.07755 6.92021L6.31837 7.23858C6.34286 7.31205 6.73469 8.1447 7.4449 9.07531C6.85714 9.3447 6.31837 9.66307 5.82857 9.95695C5.33878 10.2508 4.84898 10.5447 4.40816 10.7161C1.76327 11.5978 0.759184 9.95695 0.710204 9.90797L0 10.3243C0.0244898 10.3488 1.37143 12.6018 4.67755 11.5243C5.19184 11.3039 5.70612 11.01 6.22041 10.6916C6.78367 10.3488 7.34694 10.0059 7.98367 9.76103C8.44898 10.2508 9.03673 10.6916 9.69796 11.01C10.3592 11.3039 11.0204 11.4998 11.5837 11.6223L9.3551 14.2182H4.89796C4.53061 14.2182 4.21224 14.3406 3.96735 14.561C3.72245 14.7814 3.6 15.0998 3.6 15.4427C3.6 15.7855 3.72245 16.0794 3.96735 16.3243C4.21224 16.5692 4.53061 16.6916 4.87347 16.6916H10.1388C10.3592 16.6916 10.5551 16.6672 10.7265 16.6427C11.1673 16.5692 11.4857 16.4223 11.6571 16.2263L14.1551 13.5325C14.1551 13.5325 16.5796 14.659 17.6327 15.7855C19.5673 17.8672 19.2735 21.9325 19.249 22.0059C19.2245 22.5447 19.7633 23.3529 20.6204 23.2304C21.3551 23.1325 21.649 22.4223 21.649 21.81C21.649 21.761 21.9184 16.6916 19.7388 14.0712ZM12.2449 10.8876C11.6327 10.7896 10.8735 10.5937 10.0653 10.2263C9.62449 10.0304 9.23265 9.76103 8.8898 9.44266C9.30612 9.3447 9.74694 9.27123 10.2367 9.24674C11.2898 9.22225 12.3184 9.41817 13.249 9.71205L12.2449 10.8876Z" fill="#fff"/>
</g>
<defs>
<clipPath id="clip0">
<rect width="24" height="24" fill="white"/>
</clipPath>
</defs>
</svg>
