<svg width="24" height="24" viewBox="0 0 24 24" fill="none" xmlns="http://www.w3.org/2000/svg">
<path d="M19.8843 11.8512C18.0991 11.8512 16.6611 13.2397 16.6611 14.9256V17.3554C16.6611 17.7025 16.9587 18 17.3058 18C17.6529 18 17.9504 17.7025 17.9504 17.3554V14.9256C17.9504 13.9835 18.7934 13.1901 19.8347 13.1901H20.7272C21.7686 13.1901 22.6115 13.9835 22.6115 14.9256V17.3554C22.6115 17.7025 22.9091 18 23.2562 18C23.6033 18 23.9008 17.7025 23.9008 17.3554V14.9256C23.9008 13.2397 22.4628 11.8512 20.6777 11.8512C20.7768 11.8512 19.8843 11.8512 19.8843 11.8512Z" fill="#78BE21"/>
<path d="M17.7521 8.57851C17.7521 10.0165 18.9422 11.157 20.3306 11.157C21.719 11.157 22.9091 9.96694 22.9091 8.57851C22.9091 7.19008 21.7686 6 20.3306 6C18.8926 6 17.7521 7.19008 17.7521 8.57851ZM21.6198 8.57851C21.6198 9.27273 21.0744 9.86777 20.3306 9.86777C19.5868 9.86777 19.0413 9.32231 19.0413 8.57851C19.0413 7.83471 19.5868 7.28926 20.3306 7.28926C21.0248 7.33884 21.6198 7.8843 21.6198 8.57851Z" fill="#78BE21"/>
<path d="M4.56196 13.1901C5.60329 13.1901 6.44626 13.9835 6.44626 14.9256V17.3554C6.44626 17.7025 6.74378 18 7.09089 18C7.438 18 7.73552 17.7025 7.73552 17.3554V14.9256C7.73552 13.2397 6.2975 11.8512 4.51238 11.8512H3.71899C1.93387 11.8512 0.49585 13.2397 0.49585 14.9256V17.3554C0.49585 17.7025 0.79337 18 1.14048 18C1.48759 18 1.78511 17.7025 1.78511 17.3554V14.9256C1.78511 13.9835 2.62808 13.1901 3.6694 13.1901C3.71899 13.1901 4.56196 13.1901 4.56196 13.1901Z" fill="#78BE21"/>
<path d="M4.16527 11.2066C5.60329 11.2066 6.74378 10.0165 6.74378 8.6281C6.74378 7.23967 5.5537 6.04959 4.16527 6.04959C2.77684 6.04959 1.53717 7.19008 1.53717 8.6281C1.53717 10.0661 2.72725 11.2066 4.16527 11.2066ZM4.16527 7.33884C4.85948 7.33884 5.45453 7.8843 5.45453 8.6281C5.45453 9.3719 4.85948 9.91736 4.16527 9.91736C3.47105 9.91736 2.87601 9.32231 2.87601 8.6281C2.87601 7.93388 3.47105 7.33884 4.16527 7.33884Z" fill="#78BE21"/>
<path d="M15.8678 17.3554V14.9256C15.8678 13.2397 14.4298 11.8512 12.6446 11.8512H11.7521C9.96695 11.8512 8.52893 13.2397 8.52893 14.9256V17.3554C8.52893 17.7025 8.82645 18 9.17356 18C9.52067 18 9.81819 17.7025 9.81819 17.3554V14.9256C9.81819 13.9835 10.6612 13.1901 11.7025 13.1901H12.595C13.6364 13.1901 14.4793 13.9835 14.4793 14.9256V17.3554C14.4793 17.7025 14.7769 18 15.124 18C15.4711 18 15.8678 17.7025 15.8678 17.3554Z" fill="#78BE21"/>
<path d="M9.61987 8.6281C9.61987 10.0661 10.81 11.2066 12.1984 11.2066C13.5868 11.2066 14.7769 10.0165 14.7769 8.6281C14.7769 7.23967 13.5868 6.04959 12.1984 6.04959C10.81 6.04959 9.61987 7.19008 9.61987 8.6281ZM13.4876 8.6281C13.4876 9.32231 12.9422 9.91736 12.1984 9.91736C11.4546 9.91736 10.9091 9.3719 10.9091 8.6281C10.9091 7.8843 11.4546 7.33884 12.1984 7.33884C12.9422 7.33884 13.4876 7.93388 13.4876 8.6281Z" fill="#78BE21"/>
</svg>
