<svg width="184" height="124" viewBox="0 0 184 124" fill="none" xmlns="http://www.w3.org/2000/svg">
<path fill-rule="evenodd" clip-rule="evenodd" d="M123.227 44.2516C123.227 62.9595 108.034 78.1897 89.2376 78.1897C70.5013 78.1897 55.248 63.0195 55.248 44.2516C55.248 25.5436 70.4413 10.3135 89.2376 10.3135C107.974 10.3135 123.227 25.4837 123.227 44.2516Z" fill="#21317D"/>
<path d="M58.7911 44.2517C58.7911 61.0408 72.423 74.652 89.2376 74.652C106.052 74.652 119.684 61.0408 119.684 44.2517C119.684 27.4625 106.052 13.8513 89.2376 13.8513C72.423 13.7913 58.7911 27.4625 58.7911 44.2517Z" fill="url(#paint0_radial)"/>
<path d="M2.06261 109.804L2.06252 109.804L2.07232 109.811C3.20933 110.613 4.58254 111.008 5.97143 110.936C6.83464 110.925 7.69125 110.784 8.51255 110.519C8.63751 110.503 8.75879 110.464 8.87061 110.406C9.00455 110.335 9.12182 110.236 9.21451 110.117C9.30718 109.997 9.37316 109.859 9.40794 109.711L8.92132 109.597L9.40795 109.711C9.44104 109.571 9.44518 109.426 9.42019 109.284L9.1009 106.623C9.08094 106.33 8.96894 106.044 8.69781 105.855C8.45433 105.685 8.1603 105.652 7.91395 105.652H7.84667L7.78178 105.67C7.52323 105.741 7.25528 105.771 6.98742 105.76L6.97713 105.76H6.96682C6.67837 105.76 6.55527 105.684 6.49483 105.617C6.42586 105.541 6.3475 105.378 6.3475 105.033V86.6285C6.3475 86.3535 6.28285 86.0514 6.06224 85.8189C5.83695 85.5814 5.53309 85.5042 5.24478 85.5042H1.65446C1.50608 85.4909 1.3564 85.509 1.21523 85.5575C1.06279 85.6099 0.924332 85.6964 0.810372 85.8104C0.6964 85.9243 0.609931 86.0628 0.557543 86.2152C0.509031 86.3564 0.490919 86.5061 0.504248 86.6545V106.574C0.483097 107.197 0.61309 107.815 0.883185 108.377C1.15464 108.941 1.55943 109.431 2.06261 109.804Z" fill="white" stroke="#0E3278"/>
<path d="M26.6152 108.518L26.7968 108.368V108.309C28.3589 106.606 29.2282 104.378 29.2282 102.062C29.2282 99.6789 28.3072 97.3877 26.6576 95.6675L26.637 95.6459L26.6139 95.627C24.7038 94.06 22.3096 93.2036 19.8391 93.2036C17.3685 93.2036 14.9744 94.06 13.0643 95.627L13.0443 95.6433L13.0262 95.6616C11.3363 97.3676 10.3883 99.6717 10.3883 102.073C10.3883 104.474 11.3363 106.778 13.0262 108.484L13.0437 108.502L13.0629 108.518C14.9697 110.093 17.3657 110.955 19.8391 110.955C22.3124 110.955 24.7085 110.093 26.6152 108.518ZM19.8606 105.978C18.8568 105.978 17.8885 105.608 17.1402 104.94C16.4685 104.157 16.0989 103.159 16.0989 102.127C16.0989 101.094 16.4685 100.096 17.1402 99.3132C17.8885 98.6452 18.8568 98.2756 19.8606 98.2756C20.8644 98.2756 21.8327 98.6452 22.581 99.3132C23.2527 100.096 23.6223 101.094 23.6223 102.127C23.6223 103.159 23.2527 104.157 22.581 104.94C21.8327 105.608 20.8644 105.978 19.8606 105.978Z" fill="white" stroke="#0E3278"/>
<path d="M48.6403 93.7485L48.6373 93.7485L45.083 93.7699C44.9349 93.7611 44.7864 93.7835 44.6473 93.8357C44.5001 93.8911 44.367 93.9785 44.2577 94.0917C44.1801 94.172 44.1159 94.264 44.0672 94.364C42.8113 93.6056 41.3599 93.2171 39.8817 93.2532C38.6977 93.213 37.5174 93.4092 36.41 93.8303C35.2977 94.2533 34.2813 94.8947 33.4208 95.7166L33.4136 95.7235L33.4066 95.7307C31.7646 97.4294 30.8467 99.6996 30.8467 102.062C30.8467 104.425 31.7646 106.695 33.4066 108.394L33.4124 108.4L33.4183 108.406C34.2751 109.235 35.2907 109.883 36.4041 110.31L36.5832 109.844L36.4041 110.31C37.5125 110.736 38.695 110.934 39.8814 110.893C41.2766 110.93 42.6495 110.587 43.8567 109.91V110.35V110.361L43.8572 110.372C43.8759 110.798 43.8082 111.223 43.6581 111.622C43.51 112.016 43.2846 112.377 42.9954 112.682C42.6733 112.973 42.2972 113.198 41.8883 113.344C41.4741 113.492 41.0346 113.555 40.5955 113.531L40.5769 113.53L40.5581 113.531C39.8053 113.546 39.0605 113.373 38.391 113.029C37.8904 112.757 37.5073 112.31 37.3149 111.774L37.3113 111.764L37.3072 111.754C37.2127 111.522 37.0533 111.323 36.8482 111.18C36.643 111.037 36.4009 110.956 36.1509 110.948L36.1424 110.947H36.1339H32.5176C32.2238 110.947 31.8324 110.984 31.6015 111.308C31.4951 111.458 31.4622 111.619 31.4488 111.735C31.4364 111.843 31.4364 111.961 31.4364 112.057L31.4364 112.072V112.114L31.4437 112.156C31.6051 113.096 31.9581 113.993 32.4807 114.791C33.0034 115.589 33.6845 116.271 34.4818 116.795L34.4843 116.796C36.2978 117.972 38.4279 118.563 40.5875 118.492C42.9921 118.593 45.3463 117.781 47.1781 116.219L47.1781 116.219L47.1831 116.215C48.0231 115.479 48.6886 114.565 49.1314 113.54C49.5729 112.518 49.7818 111.411 49.743 110.298V94.8727C49.743 94.5977 49.6783 94.2956 49.4577 94.0631C49.2324 93.8256 48.9286 93.7485 48.6403 93.7485ZM40.3038 106.061L40.2889 106.061L40.2739 106.061C39.7851 106.075 39.2991 105.984 38.8489 105.793C38.4005 105.602 37.9983 105.318 37.6696 104.958C36.983 104.168 36.6206 103.147 36.6552 102.1L36.6558 102.082L36.6551 102.064C36.6129 101.008 36.9838 99.9768 37.6892 99.1898C38.0173 98.8282 38.4201 98.5421 38.8696 98.3513C39.3196 98.1603 39.8056 98.0693 40.2942 98.0847L40.3103 98.0852L40.3264 98.0847C40.803 98.0689 41.2772 98.1577 41.7158 98.3448C42.1489 98.5295 42.5369 98.8056 42.8532 99.1541C43.4939 99.988 43.8413 101.01 43.8413 102.062C43.8413 103.115 43.4936 104.137 42.8525 104.971C42.5345 105.326 42.1435 105.606 41.7063 105.795C41.264 105.985 40.7852 106.076 40.3038 106.061Z" fill="white" stroke="#0E3278"/>
<path d="M68.1367 108.519L68.3196 108.369V108.309C69.8817 106.606 70.751 104.378 70.751 102.062C70.751 99.6789 69.83 97.3878 68.1805 95.6675L68.1595 95.6456L68.136 95.6265C66.2243 94.0637 63.8311 93.21 61.3619 93.21C58.8927 93.21 56.4995 94.0637 54.5878 95.6265L54.5642 95.6457L54.5431 95.6677C52.8923 97.3916 51.9708 99.6862 51.9708 102.073C51.9708 104.46 52.8923 106.754 54.5431 108.478L54.5639 108.5L54.5871 108.519C56.4972 110.086 58.8913 110.942 61.3619 110.942C63.8325 110.942 66.2266 110.086 68.1367 108.519ZM61.3964 105.975L61.3822 105.975L61.368 105.975C60.8649 105.991 60.3636 105.906 59.8933 105.727C59.4313 105.55 59.0082 105.285 58.6476 104.947C57.9845 104.157 57.6208 103.159 57.6208 102.127C57.6208 101.095 57.9845 100.097 58.6476 99.3067C59.0082 98.9684 59.4313 98.7036 59.8933 98.5271C60.3636 98.3475 60.8649 98.2629 61.368 98.2784L61.3822 98.2789L61.3964 98.2785C61.8964 98.2655 62.394 98.3513 62.8609 98.5309C63.3195 98.7072 63.7395 98.9707 64.0978 99.3067C64.7608 100.097 65.1245 101.095 65.1245 102.127C65.1245 103.159 64.7608 104.157 64.0978 104.947C63.7395 105.283 63.3195 105.546 62.8609 105.723C62.394 105.902 61.8964 105.988 61.3964 105.975Z" fill="white" stroke="#0E3278"/>
<path d="M78.352 90.9655L78.359 90.9594L78.3658 90.9529C78.6733 90.6627 78.9183 90.3128 79.0858 89.9245C79.2532 89.5363 79.3396 89.1179 79.3396 88.6951C79.3396 88.2722 79.2532 87.8539 79.0858 87.4656C78.9183 87.0774 78.6734 86.7274 78.3658 86.4372L78.3558 86.4277L78.3453 86.4188C77.6802 85.857 76.8376 85.5488 75.967 85.5488C75.0963 85.5488 74.2538 85.857 73.5886 86.4188L73.5781 86.4277L73.5681 86.4372C73.2606 86.7274 73.0156 87.0774 72.8482 87.4656C72.6807 87.8539 72.5943 88.2722 72.5943 88.6951C72.5943 89.1179 72.6807 89.5363 72.8482 89.9245C73.0156 90.3128 73.2606 90.6627 73.5681 90.9529L73.5749 90.9594L73.582 90.9655C74.2421 91.5434 75.0896 91.8619 75.967 91.8619C76.8443 91.8619 77.6918 91.5434 78.352 90.9655ZM74.5764 109.8L74.5851 109.807L74.594 109.813C75.733 110.607 77.1025 111.002 78.4892 110.936C79.3601 110.927 80.2246 110.786 81.0534 110.519C81.1785 110.503 81.2998 110.465 81.4117 110.406C81.5457 110.335 81.6629 110.237 81.7556 110.117C81.8483 109.997 81.9143 109.859 81.949 109.712C81.9821 109.571 81.9863 109.426 81.9613 109.284L81.642 106.623C81.622 106.331 81.51 106.044 81.2389 105.855C80.9954 105.685 80.7014 105.652 80.455 105.652H80.3904L80.3278 105.669C80.0593 105.739 79.7819 105.77 79.5044 105.76L79.4954 105.76H79.4864C79.2128 105.76 79.0949 105.686 79.0357 105.62C78.9669 105.543 78.8886 105.378 78.8886 105.033V94.8729C78.8886 94.5979 78.8239 94.2958 78.6033 94.0633C78.378 93.8258 78.0742 93.7487 77.7859 93.7487H74.1956C74.0472 93.7353 73.8975 93.7534 73.7563 93.802C73.6039 93.8543 73.4654 93.9408 73.3515 94.0548C73.2375 94.1687 73.151 94.3072 73.0986 94.4596L73.0986 94.4596C73.0501 94.6008 73.032 94.7505 73.0453 94.8989V106.574C73.0254 107.194 73.1533 107.809 73.4183 108.369L73.8703 108.155L73.4183 108.369C73.6846 108.931 74.0817 109.422 74.5764 109.8Z" fill="white" stroke="#0E3278"/>
<path d="M101.292 95.7157L101.282 95.7049L101.271 95.6947C100.404 94.8684 99.3805 94.2246 98.2603 93.8016C97.1448 93.3803 95.9565 93.1866 94.7651 93.2316C93.7163 93.2109 92.6741 93.4031 91.7017 93.7968C90.9207 94.113 90.1977 94.5539 89.5605 95.1009C89.1727 94.5555 88.6659 94.1016 88.0753 93.7753L87.8335 94.2129L88.0753 93.7753C87.3019 93.348 86.4196 93.1589 85.5394 93.2315C84.6997 93.2192 83.8647 93.3591 83.0748 93.6444C82.821 93.7223 82.6005 93.883 82.4485 94.101C82.2969 94.3186 82.2225 94.5805 82.2368 94.845V97.3696C82.2368 97.6697 82.3486 97.9639 82.6203 98.1615C82.8624 98.3375 83.1646 98.3863 83.4471 98.3863H84.1574H84.1939L84.2301 98.381C84.3256 98.3669 84.4231 98.3754 84.5147 98.4058C84.6064 98.4362 84.6897 98.4875 84.7579 98.5558C84.8262 98.6241 84.8776 98.7074 84.9079 98.799C84.9383 98.8906 84.9468 98.9881 84.9328 99.0837L84.9275 99.1198V99.1563V116.769C84.9082 116.914 84.9206 117.062 84.9642 117.203C85.013 117.361 85.0996 117.504 85.2164 117.621L85.57 117.267L85.2164 117.621C85.3332 117.738 85.4767 117.824 85.6345 117.873C85.7751 117.917 85.9232 117.929 86.0687 117.91H89.6465C89.9215 117.91 90.2236 117.845 90.4561 117.625C90.6936 117.399 90.7707 117.096 90.7707 116.807V109.945C91.9866 110.62 93.3641 110.964 94.765 110.936C95.9589 110.982 97.1497 110.786 98.2662 110.361C99.3876 109.933 100.411 109.283 101.273 108.449L101.283 108.44L101.292 108.43C102.9 106.704 103.794 104.432 103.794 102.073C103.794 99.7136 102.9 97.4419 101.292 95.7157ZM98.0371 101.974L98.036 101.996L98.0369 102.018C98.0809 103.095 97.7038 104.147 96.9858 104.951C96.6497 105.301 96.2467 105.579 95.8008 105.77C95.3523 105.961 94.8697 106.06 94.3821 106.06C93.8944 106.06 93.4118 105.961 92.9634 105.77C92.5195 105.58 92.1182 105.303 91.7832 104.956C91.0925 104.136 90.7314 103.088 90.7704 102.016L90.7711 101.996L90.7703 101.977C90.7257 100.905 91.0872 99.8564 91.7823 99.0401C92.1175 98.6923 92.5191 98.4154 92.9634 98.2256C93.4118 98.034 93.8944 97.9353 94.3821 97.9353C94.8697 97.9353 95.3523 98.034 95.8008 98.2256C96.2472 98.4163 96.6505 98.695 96.9867 99.0451C97.7096 99.8446 98.0872 100.898 98.0371 101.974Z" fill="white" stroke="#0E3278"/>
<path d="M107.664 109.53L107.664 109.53L107.676 109.537C109.435 110.531 111.436 111.016 113.455 110.936C115.46 111.001 117.437 110.456 119.125 109.372C119.827 108.928 120.401 108.31 120.793 107.578C121.181 106.851 121.376 106.036 121.359 105.212C121.387 104.615 121.298 104.019 121.097 103.457C120.894 102.888 120.58 102.366 120.173 101.919L120.173 101.919L120.168 101.914C119.425 101.121 118.46 100.568 117.4 100.327C116.397 100.083 115.382 99.8932 114.359 99.7586C113.521 99.646 112.699 99.4387 111.908 99.1406L111.883 99.131L111.856 99.1242C111.674 99.0775 111.512 98.9737 111.394 98.8281C111.279 98.6865 111.211 98.5126 111.199 98.3307C111.203 98.2206 111.239 98.1139 111.302 98.0234C111.367 97.9289 111.46 97.8562 111.567 97.8148L111.586 97.8075L111.604 97.7987C112.098 97.561 112.643 97.4519 113.19 97.4816L113.21 97.4827L113.229 97.4822C113.788 97.4682 114.341 97.5968 114.836 97.8559L114.851 97.8637L114.867 97.8705C115.255 98.0414 115.563 98.355 115.726 98.7464L115.729 98.7545L115.733 98.7625C115.831 98.9761 115.992 99.1551 116.193 99.276C116.39 99.3941 116.617 99.4514 116.846 99.4412H120.019C120.304 99.4412 120.606 99.3595 120.827 99.1142C121.038 98.8789 121.1 98.5755 121.1 98.2954V98.2536L121.093 98.2124C120.962 97.4351 120.66 96.6969 120.207 96.0513C119.756 95.4064 119.166 94.8703 118.481 94.4819C116.865 93.5492 115.021 93.0864 113.156 93.1455C111.223 93.0529 109.308 93.5615 107.675 94.6018L107.665 94.608L107.656 94.6145C107.083 95.0174 106.599 95.5339 106.234 96.1318C105.869 96.7297 105.631 97.3963 105.535 98.0901C105.438 98.7839 105.486 99.4901 105.674 100.165C105.863 100.839 106.188 101.468 106.63 102.012L106.641 102.026L106.653 102.038C107.397 102.832 108.361 103.384 109.421 103.625C110.433 103.873 111.459 104.057 112.493 104.174L112.493 104.174L112.5 104.174C113.317 104.256 114.122 104.428 114.901 104.686C115.194 104.797 115.367 104.919 115.465 105.032C115.551 105.131 115.598 105.246 115.601 105.403C115.59 105.533 115.545 105.657 115.471 105.764C115.393 105.875 115.287 105.964 115.164 106.019L115.164 106.019L115.154 106.024C114.631 106.273 114.055 106.39 113.477 106.363L113.465 106.363H113.454C111.64 106.363 110.73 105.813 110.39 104.938L110.384 104.923L110.377 104.909C110.275 104.689 110.114 104.501 109.912 104.366C109.71 104.232 109.475 104.155 109.233 104.146L109.223 104.145H109.213H106.049C105.749 104.145 105.421 104.213 105.188 104.472C104.965 104.72 104.925 105.038 104.925 105.291V105.324L104.929 105.357C105.042 106.213 105.347 107.033 105.82 107.755C106.294 108.477 106.924 109.084 107.664 109.53Z" fill="white" stroke="#0E3278"/>
<path d="M136.31 109.261C136.807 109.799 137.411 110.229 138.086 110.523C138.912 110.883 139.817 111.024 140.714 110.935C141.57 110.918 142.419 110.776 143.234 110.514C143.359 110.491 143.478 110.446 143.588 110.381C143.712 110.308 143.82 110.211 143.905 110.095C143.991 109.98 144.053 109.848 144.087 109.708C144.12 109.574 144.127 109.435 144.107 109.299L143.852 106.633C143.843 106.478 143.801 106.328 143.728 106.192L143.287 106.427L143.728 106.191C143.653 106.05 143.546 105.928 143.417 105.834C143.287 105.74 143.138 105.676 142.981 105.648C142.825 105.62 142.665 105.627 142.513 105.669C142.238 105.741 141.955 105.771 141.672 105.76L141.662 105.76H141.652C141.394 105.76 141.283 105.689 141.225 105.622C141.155 105.542 141.076 105.37 141.076 105.011V94.8728C141.076 94.5978 141.011 94.2957 140.791 94.0632C140.565 93.8257 140.262 93.7485 139.973 93.7485H136.314C136.026 93.7485 135.722 93.8257 135.496 94.0632C135.276 94.2957 135.211 94.5978 135.211 94.8728V102.794V102.806L135.212 102.818C135.231 103.22 135.167 103.622 135.025 103.999C134.884 104.371 134.669 104.711 134.393 104.998C134.097 105.269 133.751 105.48 133.374 105.618C132.992 105.758 132.587 105.821 132.181 105.803L132.161 105.802L132.14 105.803C131.75 105.818 131.362 105.75 131.001 105.602C130.644 105.456 130.321 105.236 130.055 104.956C129.509 104.32 129.224 103.501 129.258 102.664L129.258 102.654V102.644V94.8728C129.258 94.5978 129.194 94.2957 128.973 94.0632C128.748 93.8257 128.444 93.7485 128.156 93.7485H124.539C124.251 93.7485 123.947 93.8257 123.722 94.0632C123.501 94.2957 123.437 94.5978 123.437 94.8728V103.277C123.389 104.29 123.545 105.301 123.896 106.252C124.249 107.206 124.791 108.08 125.489 108.82L125.489 108.82L125.498 108.83C126.204 109.539 127.05 110.092 127.983 110.455C128.907 110.815 129.897 110.979 130.888 110.936C132.841 111.033 134.76 110.436 136.31 109.261Z" fill="white" stroke="#0E3278"/>
<path d="M169.308 101.513L169.308 101.501C169.347 100.664 169.068 99.8444 168.527 99.2057C168.275 98.9267 167.965 98.7065 167.618 98.561C167.27 98.4147 166.893 98.3475 166.515 98.3644L166.494 98.3653L166.474 98.3645C166.142 98.352 165.812 98.4149 165.509 98.5485C165.208 98.6808 164.941 98.8791 164.727 99.1286C164.237 99.7546 163.987 100.535 164.022 101.33L164.022 101.341V101.352V109.295C164.022 109.57 163.958 109.872 163.737 110.105C163.512 110.342 163.208 110.419 162.919 110.419H159.308C159.159 110.433 159.01 110.414 158.868 110.366M169.308 101.513L158.868 110.366M169.308 101.513V101.524V106.578C169.297 107.211 169.442 107.837 169.73 108.401C170.019 108.966 170.443 109.451 170.964 109.813C172.102 110.61 173.473 111.005 174.861 110.936C175.73 110.923 176.593 110.783 177.421 110.52C177.547 110.504 177.67 110.465 177.783 110.405L177.551 109.972L177.783 110.405C177.918 110.332 178.035 110.231 178.127 110.108C178.218 109.985 178.281 109.843 178.311 109.693C178.338 109.559 178.338 109.421 178.311 109.288L178.12 106.633L178.12 106.633L178.12 106.627C178.096 106.339 177.974 106.064 177.716 105.877C177.479 105.704 177.187 105.652 176.911 105.652H176.845L176.781 105.669C176.508 105.743 176.226 105.774 175.944 105.76L175.933 105.76H175.921C175.678 105.76 175.57 105.691 175.513 105.625C175.444 105.547 175.366 105.377 175.366 105.033V100.891C175.416 99.8784 175.261 98.866 174.91 97.9148C174.557 96.9595 174.014 96.0858 173.313 95.3468L173.308 95.341L173.302 95.3354C172.584 94.6252 171.727 94.0717 170.784 93.7098C169.85 93.351 168.852 93.1882 167.852 93.2314C166.736 93.1704 165.621 93.3559 164.585 93.775C163.712 94.1281 162.914 94.6396 162.23 95.2821C161.635 94.6609 160.924 94.1593 160.135 93.8066C159.186 93.3819 158.15 93.185 157.111 93.2313C156.053 93.1677 154.994 93.3211 153.997 93.6821C153.175 93.9799 152.41 94.4137 151.734 94.9642C151.333 94.4502 150.823 94.0267 150.24 93.725C149.486 93.3353 148.638 93.1645 147.792 93.2317C146.952 93.2193 146.117 93.3592 145.327 93.6446C145.073 93.7225 144.852 93.8832 144.7 94.1012C144.549 94.3188 144.474 94.5807 144.489 94.8451V97.3698C144.489 97.6699 144.6 97.964 144.872 98.1616C145.114 98.3377 145.416 98.3864 145.699 98.3864H146.409H146.446L146.482 98.3811C146.577 98.3671 146.675 98.3756 146.767 98.406C146.858 98.4363 146.942 98.4877 147.01 98.556C147.078 98.6242 147.129 98.7075 147.16 98.7992C147.19 98.8908 147.199 98.9883 147.185 99.0838L147.179 99.1199V99.1564V109.295C147.179 109.57 147.244 109.872 147.465 110.105C147.69 110.342 147.994 110.419 148.282 110.419H151.765C151.913 110.433 152.063 110.414 152.204 110.366C152.356 110.314 152.495 110.227 152.609 110.113L152.255 109.76L152.609 110.113C152.723 109.999 152.809 109.861 152.862 109.708C152.91 109.567 152.928 109.417 152.915 109.269V101.352V101.339L152.914 101.325C152.871 100.53 153.141 99.7504 153.665 99.1516C153.92 98.8904 154.227 98.6855 154.566 98.5498C154.909 98.4128 155.276 98.3496 155.645 98.3645L155.655 98.3649L155.665 98.3649C156.003 98.365 156.336 98.4396 156.642 98.5832C156.945 98.7258 157.214 98.933 157.428 99.1903C157.94 99.848 158.199 100.667 158.158 101.5L158.157 101.512V101.524V109.269C158.144 109.417 158.162 109.567 158.211 109.708L158.211 109.708C158.263 109.861 158.35 109.999 158.464 110.113L158.803 109.774L158.464 110.113C158.577 110.227 158.716 110.314 158.868 110.366M169.308 101.513L159.031 109.893L158.868 110.366" fill="white" stroke="#0E3278"/>
<path d="M70.0826 41.8352L69.9348 42.4517H70.5688H72.2337V42.4518L72.2413 42.4517C74.9393 42.4104 77.5838 43.2466 79.8039 44.8455C79.9525 44.9568 80.1077 45.0587 80.2686 45.1505L80.3837 45.2161H80.5162H80.7105H80.843L80.9582 45.1505C81.1179 45.0593 81.2721 44.9582 81.4197 44.8478C83.6629 43.2845 86.3017 42.4509 89 42.4509C91.6983 42.4509 94.3371 43.2845 96.5803 44.8478C96.7279 44.9583 96.8821 45.0593 97.0418 45.1505L97.157 45.2161H97.2895H97.4838H97.6163L97.7314 45.1505C97.8923 45.0587 98.0475 44.9568 98.1961 44.8455C100.416 43.2466 103.061 42.4104 105.759 42.4517V42.4517H105.766H107.431H108.065L107.917 41.8352C106.869 37.4612 104.439 33.5735 101.012 30.7932C97.5843 28.0125 93.3559 26.5 89 26.5C84.6441 26.5 80.4157 28.0125 76.988 30.7932C73.5606 33.5735 71.1312 37.4612 70.0826 41.8352ZM103.062 51.3845L103.073 51.3765L103.084 51.368C103.847 50.751 104.791 50.4303 105.753 50.4567L105.753 50.4569H105.766H108H108.5V49.9569V45.3352V44.8352H108H105.769C103.751 44.8106 101.78 45.4631 100.151 46.6927L100.149 46.6947C99.3668 47.293 98.4231 47.6142 97.456 47.6142C96.4889 47.6142 95.5452 47.293 94.7631 46.6947L94.7632 46.6945L94.7521 46.6865C93.0863 45.4831 91.1031 44.8366 89.0694 44.8366C87.0356 44.8366 85.0524 45.4831 83.3866 46.6865L83.3865 46.6863L83.3756 46.6947C82.5935 47.293 81.6498 47.6142 80.6827 47.6142C79.7157 47.6142 78.772 47.293 77.9898 46.6946L77.9873 46.6927C76.3388 45.4478 74.3409 44.7945 72.298 44.8352H70H69.5V45.3352V49.9569V50.4569H70H72.2337V50.4571L72.2474 50.4567C73.2093 50.4303 74.1526 50.751 74.9161 51.368L74.9264 51.3764L74.9371 51.3841C76.6001 52.5885 78.5814 53.2356 80.6134 53.2356C82.6454 53.2356 84.6266 52.5885 86.2896 51.3841L86.2999 51.3767L86.3098 51.3687C87.0748 50.7532 88.0181 50.4324 88.9804 50.4568L88.9942 50.4571L89.0079 50.4567C89.9694 50.4281 90.9127 50.7488 91.6747 51.3674L91.6856 51.3762L91.697 51.3845C93.3628 52.5879 95.346 53.2344 97.3797 53.2344C99.4135 53.2344 101.397 52.5879 103.062 51.3845ZM103.062 59.6488L103.073 59.6409L103.084 59.6324C103.847 59.0154 104.791 58.6946 105.753 58.7211L105.753 58.7213H105.766H108H108.5V58.2213V53.5996V53.0996H108H105.769C103.751 53.0749 101.78 53.7275 100.151 54.957L100.149 54.959C99.3668 55.5574 98.4231 55.8786 97.456 55.8786C96.4889 55.8786 95.5452 55.5574 94.7631 54.959L94.7632 54.9589L94.7521 54.9508C93.0863 53.7474 91.1031 53.1009 89.0694 53.1009C87.0356 53.1009 85.0524 53.7474 83.3866 54.9508L83.3865 54.9507L83.3756 54.959C82.5935 55.5574 81.6498 55.8786 80.6827 55.8786C79.7157 55.8786 78.772 55.5574 77.9898 54.959L77.9873 54.9571C76.3388 53.7122 74.3409 53.0588 72.298 53.0996H70H69.5V53.5996V58.2213V58.7213H70H72.2337V58.7215L72.2474 58.7211C73.2093 58.6946 74.1526 59.0154 74.9161 59.6324L74.9264 59.6407L74.9371 59.6485C76.6001 60.8528 78.5814 61.5 80.6134 61.5C82.6454 61.5 84.6266 60.8528 86.2896 59.6485L86.2999 59.641L86.3098 59.6331C87.0748 59.0175 88.0181 58.6967 88.9804 58.7211L88.9942 58.7215L89.0079 58.721C89.9694 58.6924 90.9127 59.0132 91.6747 59.6317L91.6856 59.6406L91.697 59.6488C93.3628 60.8522 95.346 61.4987 97.3797 61.4987C99.4135 61.4987 101.397 60.8522 103.062 59.6488Z" fill="white" stroke="#0E3278"/>
<defs>
<radialGradient id="paint0_radial" cx="0" cy="0" r="1" gradientUnits="userSpaceOnUse" gradientTransform="translate(89.2431 44.242) scale(30.4741 30.428)">
<stop stop-color="#69ADE5"/>
<stop offset="1" stop-color="#0062A4"/>
</radialGradient>
</defs>
</svg>
